<svg id="Layer_1" data-name="Layer 1" xmlns="http://www.w3.org/2000/svg" xmlns:xlink="http://www.w3.org/1999/xlink" viewBox="0 0 203.25 257.64"><defs><style>.cls-1{fill:url(#linear-gradient);}.cls-2{fill:url(#linear-gradient-2);}.cls-3{fill:url(#linear-gradient-3);}.cls-4,.cls-5{fill:none;stroke-linecap:round;stroke-linejoin:round;stroke-width:3px;}.cls-4{stroke:url(#linear-gradient-4);}.cls-5{stroke:url(#linear-gradient-5);}.cls-6{fill:url(#linear-gradient-6);}.cls-7{fill:url(#linear-gradient-7);}.cls-8{fill:url(#linear-gradient-8);}</style><linearGradient id="linear-gradient" y1="89.49" x2="109.08" y2="89.49" gradientUnits="userSpaceOnUse"><stop offset="0" stop-color="#6b4480"/><stop offset="0.39" stop-color="#7d568c"/><stop offset="1" stop-color="#a279a5"/></linearGradient><linearGradient id="linear-gradient-2" x1="87.9" y1="84.69" x2="203.25" y2="84.69" xlink:href="#linear-gradient"/><linearGradient id="linear-gradient-3" x1="15.59" y1="233.05" x2="48.75" y2="233.05" xlink:href="#linear-gradient"/><linearGradient id="linear-gradient-4" x1="58.64" y1="226.89" x2="85.72" y2="226.89" xlink:href="#linear-gradient"/><linearGradient id="linear-gradient-5" x1="58.64" y1="239.45" x2="85.72" y2="239.45" xlink:href="#linear-gradient"/><linearGradient id="linear-gradient-6" x1="125.02" y1="258.68" x2="105.8" y2="206.43" xlink:href="#linear-gradient"/><linearGradient id="linear-gradient-7" x1="164.26" y1="221.91" x2="123.37" y2="257.12" xlink:href="#linear-gradient"/><linearGradient id="linear-gradient-8" x1="163.08" y1="268.72" x2="151.25" y2="197.71" xlink:href="#linear-gradient"/></defs><path class="cls-1" d="M87.94,103.06a76,76,0,0,1-1.3,15.48c-1.53,8.22-2.52,14-6.91,19.48-1.39,1.75-8.66,10.49-21.29,11.73a31.22,31.22,0,0,1-18.71-4.19c-13-7.7-15.34-22.2-15.64-24.3q.06-57.87.14-115.75L.35,5.64Q.17,63.56,0,121.47a48.23,48.23,0,0,0,2.79,16.06A54.49,54.49,0,0,0,16.32,158a56.12,56.12,0,0,0,16.77,11.12c4.2,1.77,20.42,8,39.21,1.5a54.39,54.39,0,0,0,22.51-15c2.54-2.8,9.91-11.14,12.23-22.42.93-4.52,1.52-11.81,1.59-12.62.15-2,.38-5.33.44-9.51,0-3,0-5.72-.11-8Z"/><path class="cls-2" d="M178.8,80.77c2.06-1.94,15.34-14.91,14.53-35.19-.74-18.44-12.68-29.76-15.78-32.6A52.37,52.37,0,0,0,154.16,1c-1.21-.27-30.25-6.3-51,14.1C92.86,25.21,87.9,37.92,87.9,44c0,.19,0,.84,0,2.53,0,7.64,0,13.3,0,14.81,0,4.38,0,12.09,0,26.7L109,88.1c-.24-14.49-.23-20-.16-22.13v0c.13-4,.07-6.88.05-8.2a74.24,74.24,0,0,1,.37-8.09,38.33,38.33,0,0,1,1.67-8.8,29.29,29.29,0,0,1,7.54-11.31,32.57,32.57,0,0,1,12.57-8.17,32.91,32.91,0,0,1,18.71-.62c.33.08.83.21,1.48.41,1.58.47,13.2,4.24,18.87,15.09,3.81,7.29,6.07,20,.26,25.15-2.85,2.54-6.31,2.09-11.17,1.41A12.11,12.11,0,0,1,156.09,54a9.85,9.85,0,0,1,1.13-4.14,14.9,14.9,0,0,0,.48,7.35,12.36,12.36,0,0,0,4.28,6c-2.82-6-3.27-12.15-.55-18.35-6,.21-13.86,8.05-14.34,14.34a14.67,14.67,0,0,1,4.71,2,72.76,72.76,0,0,0-25.56,4,1,1,0,0,1,0,.38,1.45,1.45,0,0,1-.51.84,2.13,2.13,0,0,1-1.66.31,3,3,0,0,1-1-.32l-.61.25c-1.82.78-3.57,1.72-5.44,2.64l.89.93a31.15,31.15,0,0,0,3.69,3.11c1-.58,6.84-3.68,13.22-1.37,0,0-5.9.46-10.14,3.36l.79.48a65.39,65.39,0,0,0,17.05,6.3,2.15,2.15,0,0,1,1.34.88,22.08,22.08,0,0,0,6.33,5.77,18.23,18.23,0,0,0,7.26,2.57,19.2,19.2,0,0,1-3.67-5.58c6.06,3.43,10.22,7.56,14.05,11.35,1.07,1.07,2,2,2.87,2.88a27.07,27.07,0,0,1,4.87,5.86s.62,1,1.14,2c1.26,2.55,4.56,9.47,2.51,18a24.8,24.8,0,0,1-8.1,13.13,26,26,0,0,1-6.14,3.63,48.12,48.12,0,0,1-15.78,4.05,155.47,155.47,0,0,1-30.44-.28v21.78a180.29,180.29,0,0,0,26,1.12,180.24,180.24,0,0,0,19.83-1.68c17.37-3.44,31.57-15.48,36.66-31.48C207.62,116,198.61,92.76,178.8,80.77Zm-26.88,1.55a57.89,57.89,0,0,1-22.59-6.49,73.34,73.34,0,0,0,22.77,5.74,73.68,73.68,0,0,0,16.8-.52A57.85,57.85,0,0,1,151.92,82.32Z"/><path class="cls-3" d="M29.68,252.42A13,13,0,0,1,34,248a23.86,23.86,0,0,1,4.25-1.92,9.15,9.15,0,0,0,2.9-1.61l0,3.71s.06,0,.07-.05a24,24,0,0,0,2.49-7.25,15.43,15.43,0,0,0-2.33-11,.79.79,0,0,0-.43-.3l-6.08-.48h-.2a9.57,9.57,0,0,0,2.23,3.79A9.7,9.7,0,0,1,33,231.55a11.34,11.34,0,0,1-3.32-3,1.13,1.13,0,0,0-.71-.45A34.45,34.45,0,0,1,20,224.74a17.76,17.76,0,0,1-4-2.92l-.47-.49c1-.48,1.9-1,2.86-1.39a37.81,37.81,0,0,1,7.89-2.31c1.57-.29,3.15-.5,4.74-.73a7.61,7.61,0,0,1,2.77.16A7.64,7.64,0,0,0,31.38,216c.25-3.3,4.38-7.42,7.53-7.53a11.2,11.2,0,0,0,.29,9.64A6.55,6.55,0,0,1,37,215a7.89,7.89,0,0,1-.25-3.86,5.17,5.17,0,0,0-.59,2.17,6.66,6.66,0,0,0,2.12,5.19,7.55,7.55,0,0,0,2.7,1.55l5.83,2.54c.08,0,.15.08.29.15l-2.36.76c3.55,4.28,5.16,9,3.24,14.44,0-5.46-1.74-10.2-6-13.89,0,.4,0,.72,0,1a3.21,3.21,0,0,1-.19.94c-.1-.18-.19-.37-.3-.55a10.29,10.29,0,0,0-4.92-4.22,18.83,18.83,0,0,0-6-1.34,25.44,25.44,0,0,0-7.59.35,17.94,17.94,0,0,0-4.18,1.36l-.44.24c.94.56,1.8,1.08,2.67,1.58.08,0,.25,0,.34-.09a7.86,7.86,0,0,1,5.88-1.09l.19.07a10.18,10.18,0,0,0-4.79,1.93,56.76,56.76,0,0,0,17.83,4.49,15.46,15.46,0,0,0-5-4.14l0-.09c.54.18,1.09.33,1.62.54a13.25,13.25,0,0,1,3.6,2,11.24,11.24,0,0,1,3.58,5.82,21.33,21.33,0,0,1-.82,13.79.52.52,0,0,0,0,.42,12.75,12.75,0,0,1,1.33,6.42,15.12,15.12,0,0,1-.63,4.14l-.09-.48c0-.16-.07-.33-.11-.49a8.53,8.53,0,0,0-2.51-4.51,6.84,6.84,0,0,0-5.19-1.66,16.89,16.89,0,0,0-6,1.66Z"/><line class="cls-4" x1="60.14" y1="226.89" x2="84.22" y2="226.89"/><line class="cls-5" x1="60.14" y1="239.45" x2="84.22" y2="239.45"/><path class="cls-6" d="M113.64,250a16,16,0,0,1-5.57-.92,11.68,11.68,0,0,1-4.09-2.47,13.28,13.28,0,0,1-2.7-3.71,17.66,17.66,0,0,1-1.55-4.54,25.41,25.41,0,0,1-.47-5.05v-15a1.89,1.89,0,0,1,1.89-1.89h1.48a1.89,1.89,0,0,1,1.89,1.89v15a15.59,15.59,0,0,0,2.16,8.55q2.16,3.39,7,3.39a9,9,0,0,0,4.37-1,7.3,7.3,0,0,0,2.84-2.75,12.9,12.9,0,0,0,1.46-3.76,20.35,20.35,0,0,0,.45-4.42v-15a1.89,1.89,0,0,1,1.89-1.89h1.53a1.89,1.89,0,0,1,1.89,1.89v15q0,7.38-3.57,12T113.64,250Z"/><path class="cls-7" d="M132.37,246.73h0a3,3,0,0,1,3-3h.12a3,3,0,0,1,3,3h0a3,3,0,0,1-3,3h-.12A3,3,0,0,1,132.37,246.73Z"/><path class="cls-8" d="M161.06,249.74H148.39a3.26,3.26,0,0,1-3.26-3.26V219.63a3.26,3.26,0,0,1,3.26-3.26h13.94a6.87,6.87,0,0,1,5.95,3.19,9.39,9.39,0,0,1,1.66,5.12,8.92,8.92,0,0,1-1.27,4.83,7.52,7.52,0,0,1-3.52,3.12,8.46,8.46,0,0,1,4.53,3.1,8.81,8.81,0,0,1,1.67,5.41,7.57,7.57,0,0,1-3,6.25A11.4,11.4,0,0,1,161.06,249.74Zm-10.67-28.81v9.82h9.68a4.36,4.36,0,0,0,3.29-1.38,4.9,4.9,0,0,0,1.32-3.51,5.16,5.16,0,0,0-1.22-3.54,4,4,0,0,0-3.11-1.39Zm11,14h-11v10.2h10.67a4.6,4.6,0,0,0,3.48-1.48,5,5,0,0,0,1.41-3.55,5.42,5.42,0,0,0-1.32-3.62A4.11,4.11,0,0,0,161.39,235Z"/></svg>