<svg xmlns="http://www.w3.org/2000/svg" xmlns:xlink="http://www.w3.org/1999/xlink" viewBox="0 0 200.4 200.4"><defs><style>.cls-1{isolation:isolate;}.cls-2{fill:url(#linear-gradient);}.cls-3{fill:url(#linear-gradient-2);}.cls-4{fill:url(#linear-gradient-3);}.cls-5{fill:url(#linear-gradient-4);}.cls-6{fill:url(#linear-gradient-5);}.cls-7{mix-blend-mode:overlay;}</style><linearGradient id="linear-gradient" x1="119.49" y1="75.32" x2="192.39" y2="192.78" gradientUnits="userSpaceOnUse"><stop offset="0.41" stop-color="#00afd3"/><stop offset="0.59" stop-color="#00b2d2"/><stop offset="0.71" stop-color="#00bbcd"/><stop offset="0.82" stop-color="#00cbc5"/><stop offset="0.92" stop-color="#00e1ba"/><stop offset="0.92" stop-color="#00e1ba"/></linearGradient><linearGradient id="linear-gradient-2" x1="203.17" y1="65.56" x2="7.04" y2="185.42" gradientUnits="userSpaceOnUse"><stop offset="0.32" stop-color="#00e1ba"/><stop offset="0.38" stop-color="#00d9ba"/><stop offset="0.47" stop-color="#00c1ba"/><stop offset="0.58" stop-color="#009cbb"/><stop offset="0.66" stop-color="#0081bb"/></linearGradient><linearGradient id="linear-gradient-3" x1="200.04" y1="222.27" x2="72.57" y2="143.36" gradientUnits="userSpaceOnUse"><stop offset="0.28" stop-color="#0081bb"/><stop offset="0.32" stop-color="#008ebb"/><stop offset="0.42" stop-color="#00acbb"/><stop offset="0.52" stop-color="#00c4ba"/><stop offset="0.64" stop-color="#00d4ba"/><stop offset="0.76" stop-color="#00deba"/><stop offset="0.92" stop-color="#00e1ba"/></linearGradient><linearGradient id="linear-gradient-4" x1="-17.26" y1="187.98" x2="132.71" y2="5.81" gradientUnits="userSpaceOnUse"><stop offset="0.22" stop-color="#006fef"/><stop offset="0.39" stop-color="#008be8"/><stop offset="0.6" stop-color="#00a7e0"/><stop offset="0.79" stop-color="#00b8dc"/><stop offset="0.93" stop-color="#00beda"/></linearGradient><linearGradient id="linear-gradient-5" x1="108.19" y1="102.59" x2="141.54" y2="8.81" gradientUnits="userSpaceOnUse"><stop offset="0.21" stop-color="#00bdda"/><stop offset="0.32" stop-color="#00b6d6"/><stop offset="0.47" stop-color="#01a2cc"/><stop offset="0.66" stop-color="#0281ba"/><stop offset="0.75" stop-color="#026fb1"/></linearGradient></defs><g class="cls-1"><g id="Layer_1" data-name="Layer 1"><path class="cls-2" d="M164.42,188.09H182.9a16.27,16.27,0,0,0,14.1-24.4l-32-55.35H136.85l32,55.34C179.85,182.81,164.42,188.09,164.42,188.09Z"/><path class="cls-3" d="M134.51,104.27H199.2a24.41,24.41,0,0,0-24.41-24.41H120.41l-39,67.56c0,.53-1.46,16.25,18.81,16.26l34.29-59.41Z"/><path class="cls-4" d="M81.41,147.42,72,163.68h0a16.28,16.28,0,0,0,14.1,24.41h78.32s15.43-5.28,4.39-24.41H100.22C80,163.67,81.36,148,81.41,147.42Z"/><path class="cls-5" d="M123.93,37.13l-9.64-16.69a16.27,16.27,0,0,0-28.18,0L3.4,163.68a16.28,16.28,0,0,0,14.1,24.41L100.2,44.85C110.87,26.37,123.93,37.13,123.93,37.13Z"/><path class="cls-6" d="M123.93,37.13s-13.06-10.76-23.73,7.72l17.86,30.94h28.19Z"/><g class="cls-7"><path class="cls-2" d="M164.42,188.09H182.9a16.27,16.27,0,0,0,14.1-24.4l-32-55.35H136.85l32,55.34C179.85,182.81,164.42,188.09,164.42,188.09Z"/><path class="cls-3" d="M134.51,104.27H199.2a24.41,24.41,0,0,0-24.41-24.41H120.41l-39,67.56c0,.53-1.46,16.25,18.81,16.26l34.29-59.41Z"/><path class="cls-4" d="M81.41,147.42,72,163.68h0a16.28,16.28,0,0,0,14.1,24.41h78.32s15.43-5.28,4.39-24.41H100.22C80,163.67,81.36,148,81.41,147.42Z"/><path class="cls-5" d="M123.93,37.13l-9.64-16.69a16.27,16.27,0,0,0-28.18,0L3.4,163.68a16.28,16.28,0,0,0,14.1,24.41L100.2,44.85C110.87,26.37,123.93,37.13,123.93,37.13Z"/><path class="cls-6" d="M123.93,37.13s-13.06-10.76-23.73,7.72l17.86,30.94h28.19Z"/></g></g></g></svg>